<?xml version="1.0" encoding="utf-8"?>
<!-- Generator: Adobe Illustrator 18.1.1, SVG Export Plug-In . SVG Version: 6.00 Build 0)  -->
<svg version="1.1" id="Layer_1" xmlns="http://www.w3.org/2000/svg" xmlns:xlink="http://www.w3.org/1999/xlink" x="0px" y="0px"
	 width="1000px" height="1000px" viewBox="0 0 1000 1000" enable-background="new 0 0 1000 1000" xml:space="preserve">
<g>
	<g>
		<path fill="#95BACA" d="M800.74,455.501c33.82-36.386,51.042-77.07,58.698-124.853c11.164,15.296,20.355,28.347,18.968,44.611
			c-2.751,32.251-4.459,64.681-9.811,96.63c-11.502,68.669-46.588,128.63-95.138,182.95
			c-59.303,66.351-141.084,98.948-232.749,116.88c-54.586,10.678-110.027,15.603-165.475,21.077
			c-54.181,5.349-108.611,8.853-153.814,42.144c-46.279,34.083-79.133,73.683-87.577,126.815c-0.196,1.233-1.424,2.343-3.266,5.222
			c-6.856-11.226-8.776-21.931-9.932-32.901c-5.596-53.122,16.129-99.362,47.686-143.08
			c39.391-54.571,96.085-93.356,156.544-128.483c64.838-37.671,131.427-72.997,195.441-111.816
			c52.302-31.717,84.412-74.912,106.97-125.753c28.342-63.876,41.032-129.773,36.41-197.618
			c-4.076-59.83-13.189-119.258-48.463-172.847c-6.121-9.299-10.875-19.279-14.866-30.447c14.804,4.071,29.389,8.008,39.18,19.274
			c21.473,24.711,47.007,46.723,67.839,71.545c28.846,34.37,52.449,71.647,66.423,113.473
			c23.057,69.014,24.506,139.397,23.481,210.204c-0.064,4.418,0.263,8.841,0.474,13.259
			C797.779,452.155,798.306,452.504,800.74,455.501z"/>
	</g>
</g>
<g>
</g>
<g>
</g>
<g>
</g>
<g>
</g>
<g>
</g>
<g>
</g>
</svg>
