<?xml version="1.0" encoding="utf-8"?>
<!-- Generator: Adobe Illustrator 18.1.1, SVG Export Plug-In . SVG Version: 6.00 Build 0)  -->
<svg version="1.1" id="Layer_1" xmlns="http://www.w3.org/2000/svg" xmlns:xlink="http://www.w3.org/1999/xlink" x="0px" y="0px"
	 width="1000px" height="1000px" viewBox="0 0 1000 1000" enable-background="new 0 0 1000 1000" xml:space="preserve">
<g>
	<path fill="#DE6F5B" d="M393.656,264.155c-1.955,34.207,15.831,51.508,39.731,65.156c9.961,5.689,15.089,2.977,19.661-6.802
		c18.996-40.628,32.455-83.072,42.121-126.743c11.604-52.425,15.105-104.621-8.487-157.471
		c20.007,7.004,34.973,18.069,49.312,29.767c59.63,48.648,95.185,109.166,92.638,188.594
		c-1.636,51.025,10.084,99.369,31.701,145.413c3.165,6.74,6.191,14.405,15.889,13.527c9.662-0.874,11.215-9.156,13.487-16.139
		c7.772-23.894,10.119-48.741,12.387-73.597c0.357-3.914-1.514-8.423,1.961-11.648c0.835-0.043,1.575-0.226,1.66-0.064
		c33.275,63.081,73.573,122.648,95.276,191.514c21.203,67.277,28.098,135.373,11.543,204.644
		c-13.642,57.084-39.102,108.7-77.566,152.975c-27.193,31.3-59.16,57.284-96.444,76.663c-57.628,29.954-119.29,44.2-182.78,34.907
		C346.565,958.868,261.278,906.4,214.532,800.957c-22.194-50.064-35.809-101.385-36.277-156.16
		c-0.341-40.003,10.528-77.019,28.631-112.372c46.451-90.719,106.049-172.364,171.634-249.921
		C382.704,277.557,386.77,272.51,393.656,264.155z"/>
</g>
<g>
</g>
<g>
</g>
<g>
</g>
<g>
</g>
<g>
</g>
<g>
</g>
</svg>
