<?xml version="1.0" encoding="utf-8"?>
<!-- Generator: Adobe Illustrator 18.1.1, SVG Export Plug-In . SVG Version: 6.00 Build 0)  -->
<svg version="1.1" id="Layer_1" xmlns="http://www.w3.org/2000/svg" xmlns:xlink="http://www.w3.org/1999/xlink" x="0px" y="0px"
	 width="1000px" height="1000px" viewBox="0 0 1000 1000" enable-background="new 0 0 1000 1000" xml:space="preserve">
<g>
	<path fill="#FEFEFF" d="M75.686,856.071c2.126,2.636,2.805,3.842,3.789,4.633c3.742,3.007,7.488,6.027,11.4,8.783
		c86.341,60.815,183.565,85.857,285.628,92.851c79.156,5.425,157.148-3.681,233.893-25.843
		c101.026-29.174,183.692-86.335,239.943-178.96c40.325-66.402,68.946-138.1,73.307-219.649
		c4.354-81.43-12.549-156.197-51.03-225.34c-70.933-127.453-177.709-210.701-307.623-262.72
		c-28.79-11.527-59.249-19.365-90.587-21.849C401.87,22.229,335.188,42.197,271.91,77.426c-15.425,8.588-31.663,17.149-42.757,31.18
		c-7.204,9.11-12.788,19.21-23.623,23.864c-11.335,4.869-19.943,13.393-27.202,23.014c-9.134,12.107-19.807,22.486-30.012,33.452
		C93.78,247.534,72.981,317.845,90.838,397.07c21.912,97.216,82.92,154.589,176.51,173.368
		c70.555,14.157,119.882-29.994,139.941-77.093c6.2-14.558,5.227-30.938,11.065-46.747c79.908,29.688,138.313,7.4,168.766-77.006
		c6.91-0.414,11.031,2.139,14.815,5.034c29.022,22.198,50.733,49.734,59.315,87.34c2.68,11.744,1.032,23.736,3.395,35.29
		c7.894,38.607,5.183,76.524-7.763,113.29c-14.397,40.89-40.582,73.405-71.528,101.539
		c-61.982,56.352-129.824,101.936-211.669,119.905c-88.625,19.458-178.398,25.499-268.758,24.1
		C95.706,855.947,86.481,856.071,75.686,856.071z"/>
	<path fill="#578CB3" d="M75.686,856.071c10.795,0,20.02-0.124,29.242,0.019c90.36,1.4,180.133-4.642,268.758-24.1
		c81.846-17.97,149.687-63.553,211.669-119.905c30.945-28.134,57.13-60.649,71.528-101.539
		c12.945-36.766,15.657-74.683,7.763-113.29c-2.363-11.554-0.715-23.546-3.395-35.29c-8.582-37.606-30.293-65.143-59.315-87.34
		c-3.784-2.895-7.904-5.448-14.815-5.034c-30.453,84.406-88.858,106.694-168.766,77.006c-5.838,15.809-4.865,32.189-11.065,46.747
		c-20.059,47.099-69.386,91.25-139.941,77.093c-93.589-18.779-154.597-76.152-176.51-173.368
		c-17.857-79.225,2.942-149.536,57.478-208.134c10.206-10.966,20.878-21.345,30.012-33.452c7.259-9.621,15.867-18.145,27.202-23.014
		c10.835-4.655,16.42-14.754,23.623-23.864c11.094-14.031,27.332-22.592,42.757-31.18c63.278-35.23,129.96-55.197,202.494-49.449
		c31.338,2.483,61.798,10.321,90.587,21.849c129.914,52.018,236.689,135.267,307.623,262.72
		c38.481,69.143,55.385,143.91,51.03,225.34c-4.361,81.549-32.981,153.247-73.307,219.649
		c-56.251,92.625-138.917,149.786-239.943,178.96c-76.745,22.162-154.737,31.268-233.893,25.843
		c-102.062-6.995-199.287-32.037-285.628-92.851c-3.912-2.755-7.658-5.775-11.4-8.783C78.491,859.913,77.812,858.707,75.686,856.071
		z"/>
</g>
<g>
</g>
<g>
</g>
<g>
</g>
<g>
</g>
<g>
</g>
<g>
</g>
</svg>
